<svg fill="#CC0000" xmlns="http://www.w3.org/2000/svg" xmlns:xlink="http://www.w3.org/1999/xlink" xml:space="preserve" version="1.1" style="shape-rendering:geometricPrecision;text-rendering:geometricPrecision;image-rendering:optimizeQuality;" viewBox="0 0 276 278" x="0px" y="0px" fill-rule="evenodd" clip-rule="evenodd"><defs><style type="text/css">
   
    .fil0 {fill:#CC0000;fill-rule:nonzero}
   
  </style></defs><g><path class="fil0" d="M276 1c-51,45 -99,88 -145,138 46,50 94,93 145,137 -20,11 -103,-50 -170,-109 -28,33 -56,69 -83,111 -34,-26 -25,-55 -9,-77 9,-12 32,-36 61,-62 -29,-27 -52,-50 -61,-62 -16,-23 -25,-51 9,-77 27,42 55,78 83,111 67,-59 150,-120 170,-110z"></path></g></svg>