<?xml version="1.0" encoding="utf-8"?>
<!-- Generator: Adobe Illustrator 22.1.0, SVG Export Plug-In . SVG Version: 6.00 Build 0)  -->
<svg version="1.1" xmlns="http://www.w3.org/2000/svg" xmlns:xlink="http://www.w3.org/1999/xlink" x="0px" y="0px"
	 viewBox="0 0 100 100" style="enable-background:new 0 0 100 100;" xml:space="preserve">
<style type="text/css">
	.st0{fill:#FF8400;}
</style>
<g id="Calque_2">
</g>
<g id="Calque_1">
	<g>
		<path class="st0" d="M49.9,97.5c26.2,0.1,47.6-21.2,47.6-47.4C97.6,23.9,76.3,2.6,50.1,2.5C23.9,2.4,2.6,23.7,2.5,49.9
			S23.7,97.4,49.9,97.5z M50.1,11.4c21.3,0.1,38.5,17.4,38.5,38.7S71.2,88.7,49.9,88.6S11.3,71.2,11.4,49.9S28.8,11.3,50.1,11.4z"/>
		<path class="st0" d="M51.9,71.5c1.7,1.7,4.6,1.7,6.3,0c1.7-1.7,1.7-4.6,0-6.3L43.1,50l15.2-15.2c1.7-1.7,1.7-4.6,0-6.3
			c-0.9-0.9-2-1.3-3.2-1.3c-1.1,0-2.3,0.4-3.2,1.3L33.5,46.8c-0.8,0.8-1.3,2-1.3,3.2c0,1.2,0.5,2.3,1.3,3.2L51.9,71.5z"/>
	</g>
</g>
</svg>
